<?xml version="1.0" encoding="utf-8"?>
<!-- Generator: Adobe Illustrator 22.0.1, SVG Export Plug-In . SVG Version: 6.00 Build 0)  -->
<svg version="1.1" id="Layer_1" xmlns="http://www.w3.org/2000/svg" xmlns:xlink="http://www.w3.org/1999/xlink" x="0px" y="0px"
	 viewBox="0 0 33 32" style="enable-background:new 0 0 33 32;" xml:space="preserve">
<style type="text/css">
	.st0{fill:#848484;}
	.st1{fill:#E72B1E;}
	.st2{fill:#FFFFFF;}
</style>
<path class="st0" d="M20.1,17.3V8.1c0-2-1.6-3.6-3.6-3.6s-3.6,1.6-3.6,3.6v9.2c-1.3,1.1-2.2,2.7-2.2,4.5c0,3.2,2.6,5.8,5.8,5.8
	s5.8-2.6,5.8-5.8C22.2,19.9,21.4,18.3,20.1,17.3z"/>
<path class="st0" d="M21.2,9.5h3.9V8.1h-3.9V9.5L21.2,9.5z M25.1,11h-3.9v1.4h3.9V11z M25.1,13.8h-3.9v1.4h3.9V13.8z"/>
<path class="st1" d="M18.6,18V8.1c0-1.2-1-2.2-2.2-2.2s-2.2,1-2.2,2.2V18c-1.3,0.7-2.2,2.1-2.2,3.7c0,2.4,1.9,4.3,4.3,4.3
	s4.3-1.9,4.3-4.3C20.8,20.2,19.9,18.8,18.6,18z"/>
<path class="st2" d="M18.6,18V8.1c0-1.2-1-2.2-2.2-2.2s-2.2,1-2.2,2.2V18c-1.3,0.7-2.2,2.1-2.2,3.7c0,2.4,1.9,4.3,4.3,4.3
	s4.3-1.9,4.3-4.3C20.8,20.2,19.9,18.8,18.6,18z M16.5,25c-1.8,0-3.2-1.5-3.2-3.2c0-1.1,0.6-2.2,1.6-2.8l0.5-0.3V11h2.2v7.7l0.5,0.3
	c1,0.6,1.6,1.7,1.6,2.8C19.7,23.6,18.3,25,16.5,25z"/>
</svg>
