<svg width="24" height="25" viewBox="0 0 24 25" fill="none" xmlns="http://www.w3.org/2000/svg">
<g id="icon/action/search_24px">
<path id="icon/action/search_24px_2" fill-rule="evenodd" clip-rule="evenodd" d="M14.9649 14.755H15.7549L20.7449 19.755L19.2549 21.245L14.2549 16.255V15.465L13.9849 15.185C12.8449 16.165 11.3649 16.755 9.75488 16.755C6.16488 16.755 3.25488 13.845 3.25488 10.255C3.25488 6.665 6.16488 3.755 9.75488 3.755C13.3449 3.755 16.2549 6.665 16.2549 10.255C16.2549 11.865 15.6649 13.345 14.6849 14.485L14.9649 14.755ZM5.25488 10.255C5.25488 12.745 7.26488 14.755 9.75488 14.755C12.2449 14.755 14.2549 12.745 14.2549 10.255C14.2549 7.76501 12.2449 5.755 9.75488 5.755C7.26488 5.755 5.25488 7.76501 5.25488 10.255Z" fill="#262626"/>
</g>
</svg>
